<mxfile host="app.diagrams.net" agent="Mozilla/5.0 (X11; Linux x86_64) AppleWebKit/537.36 (KHTML, like Gecko) Chrome/123.0.0.0 Safari/537.36" version="28.2.1">
  <diagram name="Page-1" id="S6JOeDtZp3bHrlmuJzVA">
    <mxGraphModel dx="2088" dy="2405" grid="1" gridSize="10" guides="1" tooltips="1" connect="1" arrows="1" fold="1" page="1" pageScale="1" pageWidth="827" pageHeight="1169" math="0" shadow="0">
      <root>
        <mxCell id="0" />
        <mxCell id="1" parent="0" />
        <mxCell id="Far9H_GSEx7kaut7JD99-14" style="edgeStyle=orthogonalEdgeStyle;rounded=0;orthogonalLoop=1;jettySize=auto;html=1;" edge="1" parent="1" source="Far9H_GSEx7kaut7JD99-1">
          <mxGeometry relative="1" as="geometry">
            <mxPoint x="424" y="-20" as="targetPoint" />
          </mxGeometry>
        </mxCell>
        <mxCell id="Far9H_GSEx7kaut7JD99-1" value="plan" style="ellipse;whiteSpace=wrap;html=1;aspect=fixed;" vertex="1" parent="1">
          <mxGeometry x="364" y="-230" width="120" height="120" as="geometry" />
        </mxCell>
        <mxCell id="Far9H_GSEx7kaut7JD99-16" style="edgeStyle=orthogonalEdgeStyle;rounded=0;orthogonalLoop=1;jettySize=auto;html=1;" edge="1" parent="1" source="Far9H_GSEx7kaut7JD99-2">
          <mxGeometry relative="1" as="geometry">
            <mxPoint x="424" y="170" as="targetPoint" />
          </mxGeometry>
        </mxCell>
        <mxCell id="Far9H_GSEx7kaut7JD99-2" value="develop" style="ellipse;whiteSpace=wrap;html=1;aspect=fixed;" vertex="1" parent="1">
          <mxGeometry x="369" y="-20" width="110" height="110" as="geometry" />
        </mxCell>
        <mxCell id="Far9H_GSEx7kaut7JD99-17" style="edgeStyle=orthogonalEdgeStyle;rounded=0;orthogonalLoop=1;jettySize=auto;html=1;" edge="1" parent="1" source="Far9H_GSEx7kaut7JD99-3">
          <mxGeometry relative="1" as="geometry">
            <mxPoint x="424" y="370" as="targetPoint" />
          </mxGeometry>
        </mxCell>
        <mxCell id="Far9H_GSEx7kaut7JD99-3" value="build" style="ellipse;whiteSpace=wrap;html=1;aspect=fixed;" vertex="1" parent="1">
          <mxGeometry x="369" y="170" width="110" height="110" as="geometry" />
        </mxCell>
        <mxCell id="Far9H_GSEx7kaut7JD99-18" style="edgeStyle=orthogonalEdgeStyle;rounded=0;orthogonalLoop=1;jettySize=auto;html=1;" edge="1" parent="1" source="Far9H_GSEx7kaut7JD99-4">
          <mxGeometry relative="1" as="geometry">
            <mxPoint x="424" y="550" as="targetPoint" />
          </mxGeometry>
        </mxCell>
        <mxCell id="Far9H_GSEx7kaut7JD99-4" value="test" style="ellipse;whiteSpace=wrap;html=1;aspect=fixed;" vertex="1" parent="1">
          <mxGeometry x="369" y="370" width="110" height="110" as="geometry" />
        </mxCell>
        <mxCell id="Far9H_GSEx7kaut7JD99-21" style="edgeStyle=orthogonalEdgeStyle;rounded=0;orthogonalLoop=1;jettySize=auto;html=1;entryX=0.5;entryY=0;entryDx=0;entryDy=0;" edge="1" parent="1" source="Far9H_GSEx7kaut7JD99-6" target="Far9H_GSEx7kaut7JD99-8">
          <mxGeometry relative="1" as="geometry" />
        </mxCell>
        <mxCell id="Far9H_GSEx7kaut7JD99-6" value="deploy" style="ellipse;whiteSpace=wrap;html=1;aspect=fixed;" vertex="1" parent="1">
          <mxGeometry x="369" y="730" width="110" height="110" as="geometry" />
        </mxCell>
        <mxCell id="Far9H_GSEx7kaut7JD99-22" style="edgeStyle=orthogonalEdgeStyle;rounded=0;orthogonalLoop=1;jettySize=auto;html=1;entryX=0.5;entryY=0;entryDx=0;entryDy=0;" edge="1" parent="1" source="Far9H_GSEx7kaut7JD99-8" target="Far9H_GSEx7kaut7JD99-9">
          <mxGeometry relative="1" as="geometry" />
        </mxCell>
        <mxCell id="Far9H_GSEx7kaut7JD99-8" value="operate" style="ellipse;whiteSpace=wrap;html=1;aspect=fixed;" vertex="1" parent="1">
          <mxGeometry x="369" y="870" width="105" height="105" as="geometry" />
        </mxCell>
        <mxCell id="Far9H_GSEx7kaut7JD99-9" value="monitor" style="ellipse;whiteSpace=wrap;html=1;aspect=fixed;" vertex="1" parent="1">
          <mxGeometry x="374" y="1040" width="110" height="110" as="geometry" />
        </mxCell>
        <mxCell id="Far9H_GSEx7kaut7JD99-19" style="edgeStyle=orthogonalEdgeStyle;rounded=0;orthogonalLoop=1;jettySize=auto;html=1;" edge="1" parent="1" source="Far9H_GSEx7kaut7JD99-11">
          <mxGeometry relative="1" as="geometry">
            <mxPoint x="424" y="730" as="targetPoint" />
          </mxGeometry>
        </mxCell>
        <mxCell id="Far9H_GSEx7kaut7JD99-11" value="release" style="ellipse;whiteSpace=wrap;html=1;aspect=fixed;" vertex="1" parent="1">
          <mxGeometry x="369" y="550" width="110" height="110" as="geometry" />
        </mxCell>
      </root>
    </mxGraphModel>
  </diagram>
</mxfile>
